<svg xmlns="http://www.w3.org/2000/svg" xmlns:xlink="http://www.w3.org/1999/xlink" width="500" zoomAndPan="magnify" viewBox="0 0 375 374.999991" height="500" preserveAspectRatio="xMidYMid meet" version="1.0"><path fill="#5170ff" d="M 91.726562 229.316406 Z M 285.972656 226.617188 C 291.367188 223.921875 294.066406 218.523438 296.761719 215.828125 C 299.460938 218.523438 302.160156 223.921875 307.554688 226.617188 C 345.324219 283.273438 375 345.324219 358.8125 361.511719 C 339.929688 377.699219 283.273438 348.023438 226.617188 307.554688 C 221.222656 304.855469 218.523438 299.460938 213.128906 296.761719 C 218.523438 294.066406 221.222656 291.367188 226.617188 288.667969 C 237.410156 277.878906 248.203125 267.085938 258.992188 258.992188 C 267.085938 248.203125 277.878906 237.410156 285.972656 226.617188 Z M 248.203125 105.214844 C 245.503906 94.425781 232.015625 86.332031 218.523438 89.027344 C 207.734375 91.726562 199.640625 105.214844 202.339844 118.703125 C 205.035156 129.496094 215.828125 137.589844 229.316406 137.589844 C 232.015625 140.289062 237.410156 145.683594 242.804688 151.078125 C 250.898438 159.171875 258.992188 167.265625 267.085938 175.359375 C 269.785156 180.753906 272.480469 183.453125 277.878906 188.847656 C 272.480469 191.546875 269.785156 196.941406 267.085938 199.640625 C 258.992188 210.429688 250.898438 218.523438 242.804688 226.617188 C 229.316406 237.410156 215.828125 250.898438 199.640625 264.386719 C 194.246094 269.785156 191.546875 272.480469 186.152344 275.179688 C 178.058594 283.273438 169.964844 288.667969 159.171875 296.761719 C 156.476562 299.460938 151.078125 302.160156 145.683594 304.855469 C 89.027344 345.324219 32.375 375 16.1875 358.8125 C 2.699219 348.023438 21.582031 302.160156 53.957031 256.296875 C 53.957031 256.296875 56.65625 256.296875 56.65625 256.296875 C 70.144531 250.898438 78.238281 237.410156 72.839844 226.617188 C 70.144531 213.128906 56.65625 205.035156 43.164062 207.734375 C 32.375 213.128906 24.28125 226.617188 26.976562 237.410156 C -2.699219 294.066406 -8.09375 339.929688 13.488281 364.207031 C 40.46875 391.1875 105.214844 375 175.359375 326.4375 C 178.058594 323.742188 183.453125 321.042969 188.847656 318.34375 C 191.546875 321.042969 196.941406 323.742188 202.339844 326.4375 C 272.480469 375 334.53125 391.1875 364.207031 364.207031 C 391.1875 334.53125 375 272.480469 326.4375 202.339844 C 323.742188 196.941406 321.042969 191.546875 318.34375 188.847656 C 310.25 180.753906 304.855469 169.964844 296.761719 161.871094 C 294.066406 159.171875 291.367188 153.777344 288.667969 151.078125 C 277.878906 140.289062 267.085938 129.496094 258.992188 118.703125 C 256.296875 116.007812 253.597656 113.308594 250.898438 110.613281 C 250.898438 110.613281 250.898438 107.914062 248.203125 105.214844 Z M 353.417969 140.289062 C 353.417969 140.289062 350.71875 137.589844 350.71875 134.890625 C 377.699219 80.933594 385.792969 35.070312 364.207031 13.488281 C 334.53125 -13.488281 272.480469 2.699219 202.339844 48.5625 C 196.941406 51.257812 191.546875 56.65625 188.847656 59.351562 C 183.453125 56.65625 178.058594 51.257812 175.359375 48.5625 C 105.214844 2.699219 40.46875 -13.488281 13.488281 13.488281 C -13.488281 40.46875 2.699219 105.214844 48.5625 175.359375 C 51.257812 178.058594 56.65625 183.453125 59.351562 188.847656 C 64.75 196.941406 72.839844 207.734375 80.933594 215.828125 C 83.632812 221.222656 86.332031 223.921875 91.726562 229.316406 C 99.820312 237.410156 107.914062 248.203125 118.703125 258.992188 L 121.402344 258.992188 C 121.402344 261.691406 121.402344 264.386719 121.402344 267.085938 C 124.101562 280.574219 137.589844 285.972656 151.078125 283.273438 C 164.566406 280.574219 172.660156 267.085938 167.265625 253.597656 C 164.566406 242.804688 156.476562 237.410156 145.683594 237.410156 C 134.890625 226.617188 124.101562 213.128906 113.308594 199.640625 C 107.914062 196.941406 105.214844 191.546875 102.519531 188.847656 C 105.214844 183.453125 107.914062 180.753906 113.308594 175.359375 C 126.796875 159.171875 137.589844 145.683594 151.078125 134.890625 C 159.171875 126.796875 167.265625 118.703125 175.359375 110.613281 C 178.058594 107.914062 183.453125 105.214844 186.152344 102.519531 C 196.941406 94.425781 205.035156 86.332031 215.828125 78.238281 C 218.523438 75.539062 223.921875 72.839844 226.617188 70.144531 C 283.273438 29.675781 345.324219 0 361.511719 18.886719 C 375 32.375 356.113281 75.539062 326.4375 124.101562 C 323.742188 124.101562 323.742188 124.101562 323.742188 124.101562 C 310.25 126.796875 302.160156 140.289062 304.855469 153.777344 C 310.25 167.265625 323.742188 172.660156 334.53125 169.964844 C 348.023438 167.265625 356.113281 153.777344 353.417969 140.289062 Z M 16.1875 16.1875 C 32.375 0 89.027344 29.675781 145.683594 70.144531 C 151.078125 75.539062 156.476562 78.238281 159.171875 80.933594 C 145.683594 91.726562 132.195312 105.214844 118.703125 118.703125 C 107.914062 129.496094 99.820312 137.589844 91.726562 148.382812 C 86.332031 151.078125 83.632812 156.476562 80.933594 159.171875 C 78.238281 156.476562 75.539062 151.078125 70.144531 145.683594 C 29.675781 89.027344 0 32.375 16.1875 16.1875 Z M 16.1875 16.1875 " fill-opacity="1" fill-rule="evenodd"/></svg>